<svg version="1.2" xmlns="http://www.w3.org/2000/svg" viewBox="0 0 1000 1000" width="1000" height="1000">
	<title>2190265-ai</title>
	<defs>
		<clipPath clipPathUnits="userSpaceOnUse" id="cp1">
			<path d="m1000 1000h-1000v-1000h1000z"/>
		</clipPath>
		<linearGradient id="g1" x1="0" y1="0" x2="1000" y2="0" gradientUnits="userSpaceOnUse">
			<stop offset="0" stop-color="#6a60ba"/>
			<stop offset="1" stop-color="#b587b7"/>
		</linearGradient>
		<clipPath clipPathUnits="userSpaceOnUse" id="cp2">
			<path d="m1000 1000h-1000v-1000h1000z"/>
		</clipPath>
		<clipPath clipPathUnits="userSpaceOnUse" id="cp3">
			<path d="m1000 1000h-1000v-1000h1000z"/>
		</clipPath>
		<linearGradient id="g2" x1="512.8" y1="308.6" x2="822.4" y2="9.1" gradientUnits="userSpaceOnUse">
			<stop offset="0" stop-color="#f6b7f9" stop-opacity="1"/>
			<stop offset="1" stop-color="#9082fc" stop-opacity="0"/>
		</linearGradient>
		<linearGradient id="g3" x1="17.3" y1="749.7" x2="327" y2="450.2" gradientUnits="userSpaceOnUse">
			<stop offset="0" stop-color="#f6b7f9" stop-opacity="1"/>
			<stop offset="1" stop-color="#9082fc" stop-opacity="0"/>
		</linearGradient>
		<linearGradient id="g4" x1="83.1" y1="139.9" x2="392.8" y2="-159.6" gradientUnits="userSpaceOnUse">
			<stop offset="0" stop-color="#f6b7f9" stop-opacity="1"/>
			<stop offset="1" stop-color="#9082fc" stop-opacity="0"/>
		</linearGradient>
		<linearGradient id="g5" x1="626.5" y1="706.9" x2="936.2" y2="407.4" gradientUnits="userSpaceOnUse">
			<stop offset="0" stop-color="#f6b7f9" stop-opacity="1"/>
			<stop offset="1" stop-color="#9082fc" stop-opacity="0"/>
		</linearGradient>
		<linearGradient id="g6" x1="-219.7" y1="437.9" x2="89.9" y2="138.4" gradientUnits="userSpaceOnUse">
			<stop offset="0" stop-color="#f6b7f9" stop-opacity="1"/>
			<stop offset="1" stop-color="#9082fc" stop-opacity="0"/>
		</linearGradient>
		<linearGradient id="g7" x1="159.2" y1="140.4" x2="795.2" y2="-474.9" gradientUnits="userSpaceOnUse">
			<stop offset="0" stop-color="#f6b7f9" stop-opacity="1"/>
			<stop offset="1" stop-color="#9082fc" stop-opacity="0"/>
		</linearGradient>
		<linearGradient id="g8" x1="525.5" y1="258.5" x2="262.5" y2="258.5" gradientUnits="userSpaceOnUse">
			<stop offset="0" stop-color="#f3e4e0" stop-opacity="0"/>
			<stop offset="1" stop-color="#fcfcfc" stop-opacity="1"/>
		</linearGradient>
	</defs>
	<style>
		.s0 { fill: url(#g1) } 
		.s1 { opacity: .3;fill: url(#g2) } 
		.s2 { opacity: .2;fill: url(#g3) } 
		.s3 { opacity: .3;fill: url(#g4) } 
		.s4 { opacity: .2;fill: url(#g5) } 
		.s5 { opacity: .1;fill: url(#g6) } 
		.s6 { opacity: .3;fill: url(#g7) } 
		.s7 { opacity: .5;fill: none;stroke: url(#g8);stroke-linecap: round;stroke-linejoin: round;stroke-width: 2 } 
	</style>
	<g id="BACKGROUND">
		<g id="&lt;Clip Group&gt;" clip-path="url(#cp1)">
			<path id="&lt;Path&gt;" class="s0" d="m1000 1000h-1000v-1000h1000z"/>
			<g id="&lt;Clip Group&gt;" clip-path="url(#cp2)">
			</g>
			<g id="&lt;Clip Group&gt;" clip-path="url(#cp3)">
			</g>
			<path id="&lt;Path&gt;" class="s1" d="m934.4 252.6l-208.6 208.6c-17.5 17.5-45.8 17.5-63.2 0-17.5-17.4-17.5-45.8 0-63.2l208.5-208.6c17.5-17.4 45.8-17.4 63.3 0 17.4 17.5 17.4 45.8 0 63.2z"/>
			<path id="&lt;Path&gt;" class="s2" d="m438.9 693.8l-208.5 208.5c-17.5 17.5-45.8 17.5-63.3 0-17.4-17.4-17.4-45.7 0-63.2l208.6-208.5c17.5-17.5 45.8-17.5 63.2 0 17.5 17.4 17.5 45.7 0 63.2z"/>
			<path id="&lt;Path&gt;" class="s3" d="m504.7 84l-208.6 208.6c-17.4 17.4-45.7 17.4-63.2 0-17.4-17.5-17.4-45.8 0-63.3l208.6-208.5c17.5-17.5 45.8-17.5 63.2 0 17.5 17.4 17.5 45.7 0 63.2z"/>
			<path id="&lt;Path&gt;" class="s4" d="m1048.1 650.9l-208.5 208.6c-17.5 17.5-45.8 17.5-63.3 0-17.4-17.5-17.4-45.8 0-63.2l208.6-208.6c17.5-17.4 45.8-17.4 63.2 0 17.5 17.5 17.5 45.8 0 63.2z"/>
			<path id="&lt;Path&gt;" class="s5" d="m201.9 382l-208.6 208.5c-17.4 17.5-45.7 17.5-63.2 0-17.5-17.4-17.5-45.7 0-63.2l208.6-208.6c17.4-17.4 45.7-17.4 63.2 0 17.5 17.5 17.5 45.8 0 63.3z"/>
			<path id="&lt;Path&gt;" class="s6" d="m1033.2-21.1l-482.9 483c-25.2 25.2-66.1 25.2-91.4 0-25.2-25.2-25.2-66.1 0-91.3l483-483c25.2-25.2 66.1-25.2 91.3 0 25.2 25.2 25.2 66.1 0 91.3z"/>
			<path id="&lt;Path&gt;" class="s7" d="m262.5 390l263-262.9"/>
		</g>
	</g>
</svg>