<svg version="1.2" xmlns="http://www.w3.org/2000/svg" viewBox="0 0 1000 1000" width="1000" height="1000">
	<title>3071354-ai</title>
	<style>
		.s0 { fill: #ebebeb } 
		.s1 { fill: #e0e0e0 } 
		.s2 { fill: #f5f5f5 } 
		.s3 { fill: #e6e6e6 } 
		.s4 { fill: #f0f0f0 } 
		.s5 { fill: #ffffff } 
		.s6 { fill: #fafafa } 
		.s7 { opacity: .6;fill: #e0e0e0 } 
		.s8 { fill: #407bff } 
		.s9 { opacity: .8;fill: #ffffff } 
		.s10 { opacity: .3;fill: #ffffff } 
		.s11 { opacity: .3;fill: #000000 } 
		.s12 { fill: #263238 } 
		.s13 { fill: #803e3c } 
		.s14 { fill: #7f3e3b } 
		.s15 { fill: #630f0f } 
		.s16 { opacity: .2;fill: #000000 } 
		.s17 { opacity: .4;fill: #000000 } 
		.s18 { opacity: .5;fill: #000000 } 
		.s19 { opacity: .4;fill: #ffffff } 
	</style>
	<g id="Background Complete">
		<g id="&lt;Group&gt;">
			<path id="&lt;Path&gt;" class="s0" d="m1000 765.3h-1000v-0.5h1000z"/>
			<path id="&lt;Path&gt;" class="s0" d="m856.4 797h43.4v0.5h-43.4z"/>
			<path id="&lt;Path&gt;" class="s0" d="m621.1 786.6h68.2v0.5h-68.2z"/>
			<path id="&lt;Path&gt;" class="s0" d="m793.2 778.4h89v0.5h-89z"/>
			<path id="&lt;Path&gt;" class="s0" d="m346 789h-22.2v-0.5h22.2z"/>
			<path id="&lt;Path&gt;" class="s0" d="m305.9 789h-76.7v-0.5h76.7z"/>
			<path id="&lt;Path&gt;" class="s0" d="m188 780.6h-55.4v-0.5h55.4z"/>
			<path id="&lt;Compound Path&gt;" fill-rule="evenodd" class="s0" d="m474 675.6h-386.2c-6.3 0-11.4-5.1-11.4-11.4v-542.9c0-6.3 5.1-11.4 11.4-11.4h386.2c6.3 0 11.4 5.1 11.4 11.4v542.9c0 6.3-5.1 11.4-11.4 11.4zm-386.2-565.2c-6 0-10.9 4.9-10.9 10.9v542.9c0 6 4.9 10.9 10.9 10.9h386.2c6 0 10.9-4.9 10.9-10.9v-542.9c0-6-4.9-10.9-10.9-10.9z"/>
			<path id="&lt;Compound Path&gt;" fill-rule="evenodd" class="s0" d="m906.6 675.6h-386.2c-6.3 0-11.4-5.1-11.4-11.4v-542.9c0-6.3 5.1-11.4 11.4-11.4h386.2c6.3 0 11.4 5.1 11.4 11.4v542.9c0 6.3-5.1 11.4-11.4 11.4zm-386.2-565.2c-6 0-10.9 4.9-10.9 10.9v542.9c0 6 4.9 10.9 10.9 10.9h386.2c6 0 10.9-4.9 10.9-10.9v-542.9c0-6-4.9-10.9-10.9-10.9z"/>
		</g>
		<g id="&lt;Group&gt;">
			<g id="&lt;Group&gt;">
				<path id="&lt;Path&gt;" class="s1" d="m230 349.3c23.1 0 41.8-18.8 41.8-41.9 0-23.1-18.7-41.8-41.8-41.8h-5.2v83.7z"/>
				<path id="&lt;Path&gt;" class="s2" d="m183 307.4c0 23.1 18.7 41.9 41.8 41.9 23.1 0 41.8-18.8 41.8-41.9 0-23.1-18.7-41.8-41.8-41.8-23.1 0-41.8 18.7-41.8 41.8z"/>
				<path id="&lt;Path&gt;" class="s1" d="m222.9 312.7c-30.9 0-56-25.1-56-56v-33.4c0-2.9 2.4-5.3 5.3-5.3 2.9 0 5.2 2.4 5.2 5.3v33.4c0 25.1 20.4 45.5 45.5 45.5 2.9 0 5.3 2.3 5.3 5.2 0 2.9-2.4 5.3-5.3 5.3z"/>
				<path id="&lt;Path&gt;" class="s2" d="m125.7 252.7h93c6.4 0 11-6 9.4-12.2l-8.1-30.5c-1.1-4.2-5-7.2-9.4-7.2h-76.9c-4.4 0-8.2 3-9.4 7.2l-8 30.5c-1.7 6.2 3 12.2 9.4 12.2z"/>
			</g>
			<g id="&lt;Group&gt;">
				<path id="&lt;Path&gt;" class="s1" d="m820.6 349.3c23.1 0 41.8-18.8 41.8-41.9 0-23.1-18.7-41.8-41.8-41.8h-5.2v83.7z"/>
				<path id="&lt;Path&gt;" class="s2" d="m773.6 307.4c0 23.1 18.7 41.9 41.8 41.9 23.1 0 41.8-18.8 41.8-41.9 0-23.1-18.7-41.8-41.8-41.8-23.1 0-41.8 18.7-41.8 41.8z"/>
				<path id="&lt;Path&gt;" class="s1" d="m813.5 312.7c-30.9 0-56-25.1-56-56v-33.4c0-2.9 2.4-5.3 5.3-5.3 2.9 0 5.2 2.4 5.2 5.3v33.4c0 25.1 20.4 45.5 45.5 45.5 2.9 0 5.3 2.3 5.3 5.2 0 2.9-2.4 5.3-5.3 5.3z"/>
				<path id="&lt;Path&gt;" class="s2" d="m716.3 252.7h93c6.4 0 11-6 9.4-12.2l-8.1-30.5c-1.1-4.2-5-7.2-9.4-7.2h-76.9c-4.4 0-8.2 3-9.4 7.2l-8 30.5c-1.7 6.2 3 12.2 9.4 12.2z"/>
			</g>
			<g id="&lt;Group&gt;">
				<g id="&lt;Group&gt;">
					<path id="&lt;Path&gt;" class="s3" d="m268 631.7h30.4v-117.9h-30.4z"/>
					<path id="&lt;Path&gt;" class="s4" d="m185.5 631.7h100.9l15.3-137.9h-101z"/>
					<path id="&lt;Path&gt;" class="s2" d="m174.6 631.7h104.2l15.3-137.9h-104.3z"/>
					<path id="&lt;Path&gt;" class="s5" d="m271.3 620.8l12.8-116.2h-86.8l-12.8 116.2z"/>
					<path id="&lt;Path&gt;" class="s2" d="m253.4 592.7l0.5-4.8c3.2-29.1-15-55.1-38.6-55.1l-0.6 4.7c-3.2 29.2 15 55.2 38.7 55.2z"/>
				</g>
				<g id="&lt;Group&gt;">
					<g id="&lt;Group&gt;">
						<path id="&lt;Path&gt;" class="s3" d="m118.2 764.8h89.6v-133.1h-89.6z"/>
						<path id="&lt;Path&gt;" class="s4" d="m127.2 764.8h-9v-25.7h18.4z"/>
						<path id="&lt;Path&gt;" class="s3" d="m369.5 764.8h89.7v-133.1h-89.7z"/>
						<path id="&lt;Path&gt;" class="s4" d="m118.2 749.1h259.2v-117.4h-259.2z"/>
						<path id="&lt;Path&gt;" class="s4" d="m368.4 764.8h9v-25.7h-18.5z"/>
						<path id="&lt;Path&gt;" class="s3" d="m125.2 686.4h245.2v-47.4h-245.2z"/>
						<path id="&lt;Path&gt;" class="s4" d="m231.4 669.9h32.7c14.2 0 27.8-5.8 37.6-16.1h-107.8c9.7 10.3 23.3 16.1 37.5 16.1z"/>
						<path id="&lt;Path&gt;" class="s3" d="m125.2 741.4h245.2v-47.4h-245.2z"/>
						<path id="&lt;Path&gt;" class="s4" d="m231.4 724.9h32.7c14.2 0 27.8-5.8 37.6-16.1h-107.8c9.7 10.3 23.3 16.1 37.5 16.1z"/>
					</g>
				</g>
				<g id="&lt;Group&gt;">
					<path id="&lt;Path&gt;" class="s3" d="m361 626.3h2.3c0-4.8 0-16.9 0.2-44.6 0.4-50.3 1.2-53.4 1.2-53.4l-5.5 23.2c-3.5 25.7 1 51.6 1.8 74.8z"/>
					<path id="&lt;Path&gt;" class="s3" d="m356.4 548.1c-8-9.5-24.9-12.3-42.3-14.6-6.8-0.9 17.9 14.6 30 25.7 9.4 8.6 15.4 11 18 19.5 1.3-10.6 1.1-22.5-5.7-30.6z"/>
					<path id="&lt;Path&gt;" class="s3" d="m366.9 565c8-9.5 24.9-12.2 42.3-14.6 6.8-0.9-17.9 14.7-30 25.7-9.4 8.6-15.4 11-18 19.6-1.3-10.7-1.1-22.6 5.7-30.7z"/>
					<path id="&lt;Path&gt;" class="s3" d="m363.5 526.1c6-11.3 20.9-22 37.8-26 6.6-1.6-15.3 20.9-23.7 35.4-6.4 11.2-15 24.4-16.3 33.9-2-18.8-3.7-32 2.2-43.3z"/>
					<g id="&lt;Group&gt;">
						<path id="&lt;Path&gt;" class="s4" d="m362.8 631.7c-7.1 0-12.9-3.5-13.3-8.1l-1.2-7.8h29.1l-1.2 7.8c-0.4 4.6-6.3 8.1-13.4 8.1z"/>
						<path id="&lt;Path&gt;" class="s4" d="m379.2 618.8h-32.8l-1-8.6h34.8z"/>
					</g>
				</g>
			</g>
			<g id="&lt;Group&gt;">
				<g id="&lt;Group&gt;">
					<g id="&lt;Group&gt;">
						<g id="&lt;Group&gt;">
							<path id="&lt;Path&gt;" class="s3" d="m339.1 453.4h320.4v-292.2h-320.4z"/>
							<path id="&lt;Path&gt;" class="s2" d="m331.9 453.4h324.5v-292.2h-324.5z"/>
							<path id="&lt;Path&gt;" class="s6" d="m643.4 440.4v-266.1h-298.6v266.1z"/>
							<path id="&lt;Path&gt;" class="s5" d="m606.8 440.4l-117.5-266.1h-40l117.6 266.1z"/>
							<path id="&lt;Path&gt;" class="s5" d="m555.5 440.4l-117.5-266.1h-27.5l117.6 266.1z"/>
							<path id="&lt;Path&gt;" class="s3" d="m455.7 440.4v-266.1h-15.5v266.1z"/>
							<path id="&lt;Path&gt;" class="s3" d="m558.3 440.4v-266.1h-15.4v266.1z"/>
							<path id="&lt;Path&gt;" class="s2" d="m452.9 448.7v-284.2h-19.5v284.2z"/>
							<path id="&lt;Path&gt;" class="s2" d="m555.5 448.7v-284.2h-19.5v284.2z"/>
							<path id="&lt;Path&gt;" class="s3" d="m346.2 440.4v-266.1h-1.4v266.1z"/>
						</g>
					</g>
				</g>
				<g id="&lt;Group&gt;">
					<g id="&lt;Group&gt;">
						<path id="&lt;Path&gt;" class="s3" d="m326.4 144.3h347.2c0.9 0 1.6 0.8 1.6 1.7 0 0.9-0.7 1.7-1.6 1.7h-347.2c-0.9 0-1.6-0.8-1.6-1.7 0-0.9 0.7-1.7 1.6-1.7z"/>
						<path id="&lt;Path&gt;" class="s3" d="m659.5 155.4c1.2 0 2.2-1.1 2.2-2.3v-4.8c0-1.3-1-2.3-2.2-2.3-1.2 0-2.3 1-2.3 2.3v4.8c0 1.2 1.1 2.3 2.3 2.3z"/>
						<path id="&lt;Path&gt;" class="s3" d="m351.6 155.4c1.2 0 2.3-1.1 2.3-2.3v-4.8c0-1.3-1.1-2.3-2.3-2.3-1.2 0-2.2 1-2.2 2.3v4.8c0 1.2 1 2.3 2.2 2.3z"/>
					</g>
					<path id="&lt;Path&gt;" class="s7" d="m327 374.9h324.2v-228.9h-324.2z"/>
				</g>
			</g>
			<g id="&lt;Group&gt;">
				<g id="&lt;Group&gt;">
					<path id="&lt;Path&gt;" class="s6" d="m680.6 567.3h-55.9c-6 0-10.8-4.8-10.8-10.7v-25.9c0-5.9 4.8-10.8 10.8-10.8h55.9c5.9 0 10.7 4.9 10.7 10.8v25.9c0 5.9-4.8 10.7-10.7 10.7z"/>
					<path id="&lt;Path&gt;" class="s3" d="m687.7 521.3h-70.2c-2 0-3.6-1.6-3.6-3.6v-2.9c0-2 1.6-3.6 3.6-3.6h70.2c2 0 3.6 1.6 3.6 3.6v2.9c0 2-1.6 3.6-3.6 3.6z"/>
				</g>
				<g id="&lt;Group&gt;">
					<path id="&lt;Path&gt;" class="s4" d="m615 619.9c0 0 1.1 33.3 39.9 33.3 38.8 0 39.9-33.3 39.9-33.3z"/>
				</g>
				<g id="&lt;Group&gt;">
					<path id="&lt;Path&gt;" class="s4" d="m703.6 619.9c0 0 1 33.3 39.9 33.3 38.8 0 39.8-33.3 39.8-33.3z"/>
				</g>
				<g id="&lt;Group&gt;">
					<path id="&lt;Path&gt;" class="s4" d="m764.1 567.3h-76.8c-8.2 0-14.8-6.6-14.8-14.7v-39.3c0-8.2 6.6-14.8 14.8-14.8h76.8c8.2 0 14.8 6.6 14.8 14.8v39.3c0 8.1-6.6 14.7-14.8 14.7z"/>
					<path id="&lt;Path&gt;" class="s2" d="m773.9 500.4h-96.5c-2.7 0-4.9-2.2-4.9-5v-4c0-2.7 2.2-5 4.9-5h96.5c2.8 0 5 2.3 5 5v4c0 2.8-2.2 5-5 5z"/>
				</g>
				<g id="&lt;Group&gt;">
					<path id="&lt;Path&gt;" class="s3" d="m585.8 764.8h10.1v-165.3h-10.1z"/>
					<g id="&lt;Group&gt;">
						<g id="&lt;Group&gt;">
							<path id="&lt;Path&gt;" class="s3" d="m876.8 599.5h-54.5v-32.2h54.5z"/>
							<path id="&lt;Path&gt;" class="s2" d="m550.9 599.5h271.4v-32.2h-271.4z"/>
						</g>
					</g>
					<g id="&lt;Group&gt;">
						<g id="&lt;Group&gt;">
							<path id="&lt;Path&gt;" class="s3" d="m876.8 685.4h-54.5v-32.2h54.5z"/>
							<path id="&lt;Path&gt;" class="s2" d="m550.9 685.4h271.4v-32.2h-271.4z"/>
						</g>
					</g>
					<path id="&lt;Path&gt;" class="s3" d="m857.2 764.8h10v-165.3h-10z"/>
					<path id="&lt;Path&gt;" class="s2" d="m812.2 764.8h10.1v-165.3h-10.1z"/>
					<path id="&lt;Path&gt;" class="s2" d="m550.9 764.8h10.1v-165.3h-10.1z"/>
				</g>
			</g>
		</g>
	</g>
	<g id="Shadow">
		<path id="&lt;Path&gt; 137 " class="s2" d="m887.8 832.5c0 12.5-173.6 22.6-387.8 22.6-214.2 0-387.8-10.1-387.8-22.6 0-12.5 173.6-22.7 387.8-22.7 214.2 0 387.8 10.2 387.8 22.7z"/>
	</g>
	<g id="Login">
		<g id="&lt;Group&gt;">
			<g id="&lt;Group&gt;">
				<path id="&lt;Path&gt;" class="s8" d="m520.8 731h-255.1c-8.5 0-15.6-6.8-16.1-15.3l-22.8-443.1c-0.4-8.4 6-15.2 14.5-15.2h255.1c8.4 0 15.6 6.8 16.1 15.2l22.8 443.1c0.4 8.5-6 15.3-14.5 15.3z"/>
				<path id="&lt;Path&gt;" class="s9" d="m520.8 731h-255.1c-8.5 0-15.6-6.8-16.1-15.3l-22.8-443.1c-0.4-8.4 6-15.2 14.5-15.2h255.1c8.4 0 15.6 6.8 16.1 15.2l22.8 443.1c0.4 8.5-6 15.3-14.5 15.3z"/>
			</g>
			<path id="&lt;Path&gt;" class="s8" d="m471.2 244.9h-28.2v-2h28.2z"/>
			<path id="&lt;Path&gt;" class="s8" d="m433.2 244.9h-10.3v-2h10.3z"/>
			<path id="&lt;Path&gt;" class="s8" d="m531.8 702.9h-244c-8.1 0-15-6.5-15.4-14.6l-21.8-423.8c-0.4-8.1 5.8-14.6 13.8-14.6h244.1c8 0 14.9 6.5 15.3 14.6l21.8 423.8c0.5 8.1-5.7 14.6-13.8 14.6z"/>
			<path id="&lt;Compound Path&gt;" fill-rule="evenodd" class="s5" d="m531.8 693.1h-244c-2.9 0-5.5-2.5-5.6-5.3l-21.9-423.8c-0.1-1.5 0.6-2.5 1.1-3.1 0.5-0.6 1.5-1.2 3-1.2h244.1c2.8 0 5.4 2.5 5.6 5.3l21.8 423.8c0.1 1.5-0.5 2.5-1.1 3.1-0.5 0.6-1.5 1.2-3 1.2zm-267.4-432.9c-1.3 0-2.2 0.5-2.6 1-0.5 0.5-1 1.4-1 2.8l21.9 423.8c0.1 2.6 2.5 4.8 5.1 4.8h244c1.4 0 2.2-0.5 2.7-1 0.4-0.5 1-1.4 0.9-2.8l-21.8-423.8c-0.2-2.6-2.6-4.8-5.1-4.8z"/>
			<path id="&lt;Path&gt;" class="s10" d="m466.1 361.2c2.1 40.8-29.3 73.9-70.1 73.9-40.8 0-75.6-33.1-77.7-73.9-2.1-40.8 29.3-73.8 70.1-73.8 40.8 0 75.5 33 77.7 73.8z"/>
			<path id="&lt;Path&gt;" class="s5" d="m451.9 361.2c0.6 10.4-1.5 20-5.7 28.5-9.1 18.6-28.2 31.3-50.9 31.3-22.8 0-43.2-12.7-54.2-31.3-5-8.5-8.2-18.1-8.7-28.5-1.7-33 23.7-59.7 56.7-59.7 33 0 61.1 26.7 62.8 59.7z"/>
			<path id="&lt;Path&gt;" class="s8" d="m446.2 389.7c-9.1 18.6-28.2 31.3-50.9 31.3-22.8 0-43.2-12.7-54.2-31.3 14.5-10.1 32.3-15.9 51.7-15.9 19.5 0 37.8 5.8 53.4 15.9z"/>
			<path id="&lt;Path&gt;" class="s8" d="m417.7 340.8c0.8 14.7-10.5 26.6-25.2 26.6-14.7 0-27.2-11.9-28-26.6-0.8-14.7 10.6-26.6 25.3-26.6 14.7 0 27.2 11.9 27.9 26.6z"/>
			<g id="&lt;Group&gt;">
				<path id="&lt;Path&gt;" class="s5" d="m496.8 538h-191c-3.5 0-6.4-2.7-6.5-6.1l-1.5-28.1c-0.2-3.4 2.5-6.2 5.9-6.2h191c3.5 0 6.4 2.8 6.5 6.2l1.5 28.1c0.2 3.4-2.5 6.1-5.9 6.1z"/>
				<path id="&lt;Path&gt;" class="s11" d="m438.3 482.2h-79.8c-3.4 0-6.3-2.8-6.5-6.2l-0.3-5.9c-0.2-3.5 2.5-6.2 5.9-6.2h79.8c3.4 0 6.3 2.7 6.5 6.2l0.3 5.9c0.1 3.4-2.5 6.2-5.9 6.2z"/>
				<path id="&lt;Path&gt;" class="s11" d="m468 672.6h-119.5c-5.8 0-10.8-4.7-11.1-10.5l-0.7-13.8c-0.3-5.8 4.2-10.5 10-10.5h119.5c5.8 0 10.8 4.7 11.1 10.5l0.7 13.8c0.3 5.8-4.2 10.5-10 10.5z"/>
				<path id="&lt;Path&gt;" class="s5" d="m500.3 605.7h-191.1c-3.4 0-6.3-2.8-6.5-6.2l-1.4-28c-0.2-3.5 2.5-6.2 5.9-6.2h191c3.4 0 6.3 2.7 6.5 6.2l1.5 28c0.1 3.4-2.5 6.2-5.9 6.2z"/>
				<path id="&lt;Path&gt;" class="s12" d="m330.1 517.8c0.2 3.8-2.8 6.9-6.5 6.9-3.8 0-7-3.1-7.2-6.9-0.2-3.8 2.7-6.8 6.5-6.8 3.7 0 7 3 7.2 6.8z"/>
				<path id="&lt;Path&gt;" class="s12" d="m351.1 517.8c0.2 3.8-2.7 6.9-6.5 6.9-3.8 0-7-3.1-7.2-6.9-0.2-3.8 2.7-6.8 6.5-6.8 3.8 0 7 3 7.2 6.8z"/>
				<path id="&lt;Path&gt;" class="s12" d="m372.1 517.8c0.2 3.8-2.7 6.9-6.5 6.9-3.8 0-7-3.1-7.2-6.9-0.2-3.8 2.7-6.8 6.5-6.8 3.8 0 7 3 7.2 6.8z"/>
				<path id="&lt;Path&gt;" class="s12" d="m393.1 517.8c0.2 3.8-2.7 6.9-6.5 6.9-3.8 0-7-3.1-7.2-6.9-0.2-3.8 2.7-6.8 6.5-6.8 3.8 0 7 3 7.2 6.8z"/>
				<path id="&lt;Path&gt;" class="s12" d="m333.5 585.5c0.2 3.8-2.7 6.8-6.4 6.8-3.8 0-7-3-7.2-6.8-0.2-3.8 2.7-6.8 6.5-6.8 3.7 0 6.9 3 7.1 6.8z"/>
				<path id="&lt;Path&gt;" class="s12" d="m354.6 585.5c0.2 3.8-2.8 6.8-6.5 6.8-3.8 0-7-3-7.2-6.8-0.2-3.8 2.7-6.8 6.5-6.8 3.7 0 7 3 7.2 6.8z"/>
				<path id="&lt;Path&gt;" class="s12" d="m375.6 585.5c0.2 3.8-2.7 6.8-6.5 6.8-3.8 0-7-3-7.2-6.8-0.2-3.8 2.7-6.8 6.5-6.8 3.8 0 7 3 7.2 6.8z"/>
				<path id="&lt;Path&gt;" class="s12" d="m396.6 585.5c0.2 3.8-2.7 6.8-6.5 6.8-3.8 0-7-3-7.2-6.8-0.2-3.8 2.7-6.8 6.5-6.8 3.8 0 7 3 7.2 6.8z"/>
				<path id="&lt;Path&gt;" class="s12" d="m417.6 585.5c0.2 3.8-2.7 6.8-6.5 6.8-3.8 0-7-3-7.2-6.8-0.2-3.8 2.7-6.8 6.5-6.8 3.8 0 7 3 7.2 6.8z"/>
				<path id="&lt;Path&gt;" class="s12" d="m438.6 585.5c0.2 3.8-2.7 6.8-6.5 6.8-3.7 0-7-3-7.2-6.8-0.2-3.8 2.7-6.8 6.5-6.8 3.8 0 7 3 7.2 6.8z"/>
			</g>
		</g>
	</g>
	<g id="Character">
		<g id="&lt;Group&gt;">
			<g id="&lt;Group&gt;">
				<path id="&lt;Path&gt;" class="s13" d="m666.1 353.2c0.5 0.8 0.7 1.2 1 1.7l0.9 1.5c0.6 1 1.1 2 1.6 3q1.6 3 2.8 6c1.7 4 3.2 8 4.4 12.1 2.4 8.3 3.9 16.7 4.7 25.1l0.2 1.6c0 0.2 0 0.6 0 1l0.1 1c0 1.5-0.1 2.9-0.3 4.2-0.3 2.7-1.1 5.1-1.9 7.4-1.8 4.6-4.3 8.5-7 12-5.4 7-11.6 12.6-18.6 17.6l-5.5-6.4c4.9-5.8 9.7-12.1 13.3-18.4 1.8-3.2 3.2-6.4 4-9.5 0.4-1.5 0.7-2.9 0.7-4.2 0-0.7 0-1.3-0.1-1.9v-0.4c0-0.2-0.1-0.3-0.1-0.6l-0.3-1.4c-1.3-7.5-3.1-14.9-5.4-22-1.2-3.6-2.6-7-4-10.4q-1.1-2.6-2.3-5l-1.3-2.3-0.6-1.1-0.5-0.9z"/>
				<path id="&lt;Path&gt;" class="s14" d="m647.4 447.5l7.2 15.3 5.8-12.9c0 0-5.1-11.2-12-10.2z"/>
				<path id="&lt;Path&gt;" class="s14" d="m659.8 463.6l5.8-9.4-5.2-4.3-5.8 12.9z"/>
				<path id="&lt;Compound Path&gt;" fill-rule="evenodd" class="s8" d="m624.1 815.6q-0.9-0.8-0.7-2.1c0.1-0.7 0.5-1 0.8-1.2 2-0.8 7 2.4 7.6 2.8 0.2 0.1 0.2 0.3 0.2 0.4 0 0.2-0.2 0.3-0.3 0.3-1.2 0.3-2.9 0.6-4.4 0.6-1.3 0-2.5-0.2-3.2-0.8zm0.4-2.5c-0.1 0-0.2 0.1-0.3 0.5q-0.1 0.9 0.4 1.4c0.9 0.7 3.1 0.9 6 0.3-2.1-1.3-5-2.7-6.1-2.2z"/>
				<path id="&lt;Compound Path&gt;" fill-rule="evenodd" class="s8" d="m631.4 815.8c-1.6-0.9-4.6-4.5-4.3-6.4 0.1-0.4 0.4-1 1.4-1.1q0.9-0.1 1.7 0.5c1.8 1.6 1.8 6.4 1.8 6.6q0 0.3-0.2 0.4-0.1 0-0.2 0-0.1 0-0.2 0zm-2.8-6.7c-0.5 0-0.6 0.3-0.7 0.4-0.2 1.2 1.7 3.9 3.3 5.2-0.1-1.6-0.5-4.3-1.6-5.3q-0.4-0.3-0.9-0.3 0 0-0.1 0z"/>
				<path id="&lt;Compound Path&gt;" fill-rule="evenodd" class="s8" d="m608.3 808.3c-2.2 1.6-6.3 4.3-8.6 3.5q-1.1-0.3-1.5-1.4-0.2-0.7 0.2-1.3 0 0 0.1-0.1c1.6-1.7 8.8-1.4 9.6-1.4 0.2 0 0.3 0.1 0.4 0.3q0 0.2-0.1 0.4 0 0-0.1 0zm-9.3 1.3q-0.2 0.2-0.1 0.5 0.3 0.8 1 1c1.3 0.4 3.9-0.6 7-2.7-3-0.1-6.9 0.2-7.8 1.1q-0.1 0.1-0.1 0.1z"/>
				<path id="&lt;Compound Path&gt;" fill-rule="evenodd" class="s8" d="m608.1 808.4c-2.2 0-7.3-1.6-7.8-3.5-0.1-0.4-0.1-1.1 0.9-1.6q1-0.6 2.3-0.3c2.6 0.7 4.8 4.6 4.9 4.8q0.1 0.2 0 0.4 0 0 0 0.1-0.1 0.1-0.3 0.1zm-7-3.7c0.3 1.1 3.9 2.6 6.3 2.9-0.8-1.1-2.4-3.4-4.1-3.8q-0.9-0.3-1.7 0.2-0.3 0.1-0.4 0.3c-0.2 0.2-0.2 0.4-0.1 0.4z"/>
				<path id="&lt;Path&gt;" class="s14" d="m630.4 294.7c-1.9 9.9-6.3 31.6 0.6 38.2 0 0-2.7 10.1-21.2 10.1-20.3 0-9.7-10.1-9.7-10.1 11.1-2.6 10.8-10.9 8.9-18.6z"/>
				<path id="&lt;Path&gt;" class="s12" d="m596.6 271.2q0.1 0 0.3-0.1c0.4-0.2 0.6-0.6 0.4-1-2-4-5.6-4.4-5.8-4.4-0.4-0.1-0.8 0.2-0.9 0.7 0 0.4 0.3 0.8 0.7 0.8 0.1 0.1 3 0.4 4.5 3.6 0.2 0.3 0.5 0.4 0.8 0.4z"/>
				<path id="&lt;Path&gt;" class="s15" d="m590.5 279.9c0 0-3 5.5-5.8 8 1.5 1.8 4.6 1.5 4.6 1.5z"/>
				<path id="&lt;Path&gt;" class="s12" d="m592 277.7c-0.2 1.4-1 2.4-1.9 2.3-0.9-0.1-1.5-1.3-1.3-2.6 0.2-1.4 1-2.4 1.9-2.3 0.9 0.1 1.4 1.3 1.3 2.6z"/>
				<path id="&lt;Path&gt;" class="s12" d="m591.1 275.2l-3.1-1.3c0 0 1.3 2.7 3.1 1.3z"/>
				<path id="&lt;Path&gt;" class="s14" d="m626 804.5l-16.3 3.8-9.9-37.5 16.3-3.9z"/>
				<path id="&lt;Path&gt;" class="s14" d="m651.1 815.4h-16.8l1.3-38.7h16.8z"/>
				<path id="&lt;Path&gt;" class="s12" d="m633 813.5h18.8c0.7 0 1.3 0.5 1.4 1.2l2.1 14.8c0.2 1.6-1.1 3.1-2.7 3-6.5-0.1-9.7-0.5-18-0.5-5.1 0-12.5 0.6-19.5 0.6-6.9 0-7.5-7-4.5-7.6 13.1-2.9 15.2-6.7 19.6-10.5 0.8-0.6 1.8-1 2.8-1z"/>
				<path id="&lt;Path&gt;" class="s12" d="m608.3 805.8l17.1-7.9c0.6-0.3 1.3-0.1 1.7 0.5l8.1 12.6c0.9 1.3 0.3 3.2-1.2 3.9-6 2.6-9 3.6-16.5 7-4.6 2.2-14 7-20.4 10-6.2 2.9-9.6-3.2-7.2-5 10.7-8.1 13.8-13.8 16.3-19 0.4-1 1.2-1.7 2.1-2.1z"/>
				<g id="&lt;Group&gt;">
					<path id="&lt;Path&gt;" class="s16" d="m599.8 770.8l5.3 20.1 16.1-4.6-5.1-19.3z"/>
					<path id="&lt;Path&gt;" class="s16" d="m652.4 776.7h-16.8l-0.6 20h16.7z"/>
				</g>
				<path id="&lt;Path&gt;" class="s12" d="m659.9 336.7c7 1.6 14.4 26.6 14.4 26.6l-19.7 20.9c0 0-16.3-23.5-13-32.1 3.5-9.1 10.1-17.2 18.3-15.4z"/>
				<path id="&lt;Path&gt;" class="s17" d="m648.9 352.7c-3.5-3.3-5.9-2.3-7.5 0.3-1.6 7.4 7.8 23 11.7 28.9 1.7-7.1 3.7-21.9-4.2-29.2z"/>
				<path id="&lt;Path&gt;" class="s12" d="m571.8 337.2c0 0-8 2.8 8 101.1 27 0 54.9 0 68.1 0-1.2-27.7-1.2-44.7 12-101.6 0 0-14.2-3.1-28.9-3.8-11.4-0.5-20.8-0.9-30.9 0-13.2 1.2-28.3 4.3-28.3 4.3z"/>
				<path id="&lt;Path&gt;" class="s17" d="m571.2 374.9c0.4 4.8 1 10.2 1.8 16.3 5.6-5 10.1-19.3 8.4-27.6-3.9 2.9-7.5 7.3-10.2 11.3z"/>
				<path id="&lt;Path&gt;" class="s13" d="m578.5 360c-3.7 9.4-7.8 18.3-12.4 27.1-4.6 8.9-9.5 17.6-16 26l-1.2 1.6-0.7 0.8c-0.2 0.3-0.4 0.5-0.7 0.9-1.3 1.3-2.6 2.5-4 3.5-2.7 1.9-5.6 3.2-8.3 4.1-5.6 1.9-10.9 2.6-16.1 2.9-10.5 0.4-20.4-0.6-30.3-2.7l1.1-8.4c4.6 0 9.4-0.1 14-0.4 4.7-0.2 9.3-0.7 13.8-1.5 4.4-0.8 8.7-1.9 12.2-3.5 1.8-0.7 3.3-1.7 4.5-2.6q0.8-0.8 1.3-1.5c0.1 0 0.3-0.3 0.4-0.5l0.5-0.7 0.9-1.3c5-7.3 9.3-15.8 13.4-24.2 4.1-8.5 8-17.3 11.7-26z"/>
				<path id="&lt;Path&gt;" class="s12" d="m571.8 337.2c-8.3 2-18.6 24.9-18.6 24.9l17.3 25.4c0 0 23-29 20.3-37.8-2.9-9.2-8.9-15-19-12.5z"/>
				<path id="&lt;Path&gt;" class="s14" d="m494.7 417l-14.5-6.6-1.4 14.3c0 0 12 3.5 18-0.1z"/>
				<path id="&lt;Path&gt;" class="s14" d="m471.6 408.9l-1.4 10.9 8.6 4.9 1.4-14.3z"/>
				<path id="&lt;Path&gt;" class="s14" d="m637.6 278.7c-3 16.4-4 23.4-13.3 30.8-14.1 11.1-33.5 3.8-35.4-13.1-1.7-15.2 3.6-39.4 20.5-44 16.7-4.5 31.3 10 28.2 26.3z"/>
				<path id="&lt;Path&gt;" class="s12" d="m601.7 282.2c-0.9 8.3-1.3 30 17 30.6 22.5 0.9 29.2-18.3 27.2-26 11.7-9.5 13.4-25.8 0.2-38.3-13.1-12.5-42-5.5-50 6.7-10 15.1 5.6 27 5.6 27z"/>
				<path id="&lt;Path&gt;" class="s8" d="m624.2 253.4c-1.1-8.8-0.2-14.9 8-14.9 8.2 0 19.5 3 23.6 11.4 4.1 8.4 4.4 21.6-7.1 20.3-11.5-1.4-23.2-6.3-24.5-16.8z"/>
				<path id="&lt;Path&gt;" class="s12" d="m637 251.2c-2-10.4 7.3-39.9 30.1-41.9 10.6-0.9 15.5 10.5 9.9 12.4 10-0.1 16.4 13.1 7.1 15.1 7.4 4.7 5.6 14.4-4.9 19.1-7.8 3.5-39.5 9.9-42.2-4.7z"/>
				<path id="&lt;Path&gt;" class="s12" d="m661.3 262.5c-7.3 0-15-1.1-19.8-4.3-2.8-1.9-4.4-4.4-4.7-7.6 0-0.2 0.2-0.5 0.5-0.5 0.3 0 0.5 0.2 0.5 0.5 0.3 2.8 1.7 5.1 4.3 6.8 9.1 6.1 30 4.1 36.5 2 5.7-1.9 9.5-5.4 10.2-9.6 0.6-3-0.6-5.9-3.3-8.1-0.2-0.1-0.3-0.4-0.1-0.7 0.2-0.2 0.5-0.2 0.7 0 3 2.4 4.3 5.7 3.7 9-0.8 4.5-4.9 8.4-10.9 10.3-3.4 1.1-10.3 2.2-17.6 2.2z"/>
				<path id="&lt;Path&gt;" class="s14" d="m596.6 280c-2 2.7-2.6 6.2-2.1 9 0.7 4.2 4.7 4.5 7.7 1.8 2.7-2.4 5.5-7.5 3.4-11-2.2-3.5-6.7-3-9 0.2z"/>
				<path id="&lt;Path&gt;" class="s8" d="m597.8 438.3c0 0 9.7 115 19.8 179.8 8.1 52.3 14.6 174.7 14.6 174.7h22.8c0 0 8.1-118.7 4-170.5-10.5-131 12.9-141.6-11.1-184z"/>
				<path id="&lt;Path&gt;" class="s17" d="m626.5 481.8c-9.2 9.4-16.2 20.7-21.5 32.5 2.6 25.9 5.8 54.6 9.1 79.7 10.4-26.3 19.3-66.7 12.4-112.2z"/>
				<path id="&lt;Path&gt;" class="s8" d="m581.8 437.6c0 0-21.1 125.6-24.4 182.2 8.3 52.3 42.1 162.9 42.1 162.9l20.8-7.5c0 0-11.5-120.6-24-153.6 28.1-94.8 48.8-118.7 42.8-183.3-14.4 0-57.3-0.7-57.3-0.7z"/>
				<path id="&lt;Path&gt;" class="s12" d="m596.8 788.3l28-7.6-1.6-11.2-30 8.1z"/>
				<path id="&lt;Path&gt;" class="s12" d="m629 793.2h29.1l1.6-10.2-30.8-1z"/>
				<g id="&lt;Group&gt;">
					<path id="&lt;Path&gt;" class="s8" d="m648.9 434.3l3 6.1c0.3 0.5-0.3 1-1.1 1h-71.3c-0.6 0-1.1-0.3-1.2-0.7l-0.6-6.1c0-0.4 0.5-0.8 1.2-0.8h68.9c0.5 0 0.9 0.2 1.1 0.5z"/>
					<path id="&lt;Path&gt;" class="s18" d="m648.9 434.3l3 6.1c0.3 0.5-0.3 1-1.1 1h-71.3c-0.6 0-1.1-0.3-1.2-0.7l-0.6-6.1c0-0.4 0.5-0.8 1.2-0.8h68.9c0.5 0 0.9 0.2 1.1 0.5z"/>
				</g>
				<path id="&lt;Path&gt;" class="s8" d="m639.6 442h1.9c0.3 0 0.6-0.2 0.6-0.4l-0.9-7.9c0-0.2-0.3-0.4-0.7-0.4h-1.8c-0.4 0-0.7 0.2-0.7 0.4l0.9 7.9c0 0.2 0.4 0.4 0.7 0.4z"/>
				<g id="&lt;Group&gt;">
					<path id="&lt;Path&gt;" class="s8" d="m614.9 383.8c-0.5-0.1-0.9-0.4-1-0.8-6.5-24.1-20.1-43.9-26.6-47-0.7-0.3-1.3-0.4-1.7-0.3-0.5 0.3-1 0-1.3-0.5-0.2-0.5 0-1.1 0.5-1.3q1.4-0.6 3.4 0.3c6.9 3.3 20.6 22.9 27.4 47.5 4.9 0 12.5-0.6 14.3-0.8 2.3-2.7 19.1-23.7 12.8-46.6-0.2-0.5 0.2-1.1 0.7-1.2 0.5-0.2 1.1 0.1 1.2 0.7 7 25.5-13.2 48.5-13.5 48.7q-0.2 0.3-0.6 0.4c-0.1 0-10.1 0.8-15.6 0.8z"/>
					<g id="&lt;Group&gt;">
						<g id="&lt;Group&gt;">
							<path id="&lt;Path&gt;" class="s8" d="m648 397.9c-10.9-20.4-15.4-21.9-17.3-28.4 0 0 1.7-5 6.2-10-1.3-0.4-4.2-1-6-1.3q0.4-1.4 0.7-2.6c-1.5-0.4-4.6 0-6.1 0.2l-0.1-2c0 0-5.5-1.1-7.8-0.5q0.4 1.4 0.7 2.9c-1.9 0.4-5 1-6.5 1.4 4.2 4.8 5.8 9.9 6.1 11.2-5.9 10.1-28.7 75 8.4 79.9 37.2 4.8 32.6-30.4 21.7-50.8z"/>
							<path id="&lt;Path&gt;" class="s19" d="m648 397.9c-10.9-20.4-15.4-21.9-17.3-28.4 0 0 1.7-5 6.2-10-1.3-0.4-4.2-1-6-1.3q0.4-1.4 0.7-2.6c-1.5-0.4-4.6 0-6.1 0.2l-0.1-2c0 0-5.5-1.1-7.8-0.5q0.4 1.4 0.7 2.9c-1.9 0.4-5 1-6.5 1.4 4.2 4.8 5.8 9.9 6.1 11.2-5.9 10.1-28.7 75 8.4 79.9 37.2 4.8 32.6-30.4 21.7-50.8z"/>
						</g>
						<path id="&lt;Path&gt;" class="s8" d="m616.5 366.8c-0.3 0.5-0.2 2.4-0.3 3.2 0 0.7 2 1.2 4.2 1.4 2.3 0.2 11.6 0.6 11.3-0.4-0.3-1.1 0.4-2.5 0.5-3.4 0-0.9-3.7-0.9-6.9-0.8-3.1 0.2-8.2-1.1-8.8 0z"/>
					</g>
				</g>
				<path id="&lt;Path&gt;" class="s8" d="m594.9 442h1.8c0.4 0 0.7-0.2 0.7-0.4l-0.9-7.9c0-0.2-0.3-0.4-0.7-0.4h-1.9c-0.3 0-0.6 0.2-0.6 0.4l0.9 7.9c0 0.2 0.3 0.4 0.7 0.4z"/>
			</g>
		</g>
	</g>
</svg>